HIERARCHY
ROOT Hip
{
	OFFSET 0 1.131 0.0052
	CHANNELS 6 Xposition Yposition Zposition Xrotation Yrotation Zrotation
	JOINT Abdomen
	{
		OFFSET 0 -0.047353 -0.05
		CHANNELS 3 Xrotation Zrotation Yrotation
		JOINT Chest
		{
			OFFSET 0 0.132153 0.007439
			CHANNELS 3 Xrotation Zrotation Yrotation
			JOINT Neck
			{
				OFFSET 0 0.3078 0.006161
				CHANNELS 3 Xrotation Zrotation Yrotation
				JOINT Head_comp
				{
					OFFSET 0 0.0884 0.013
					CHANNELS 3 Xrotation Yrotation Zrotation
					End Site
					{
						OFFSET -0 0.156 0.0624
					}
				}
			}
			JOINT Left_Collar
			{
				OFFSET 0.02282 0.250342 0.017193
				CHANNELS 2 Yrotation Zrotation
				JOINT Left_Shoulder
				{
					OFFSET 0.15421 0 0
					CHANNELS 3 Xrotation Yrotation Zrotation
					JOINT Left_Forearm
					{
						OFFSET 0.265212 0 0
						CHANNELS 2 Yrotation Xrotation
						JOINT Left_Hand
						{
							OFFSET 0.27571 0 0
							CHANNELS 2 Zrotation Yrotation
							JOINT L1ProxPhalanx
							{
								OFFSET 0.014142 0.001733 0.014142
								CHANNELS 3 Yrotation Zrotation Xrotation
								JOINT L1MidPhalanx
								{
									OFFSET 0.04 0 0
									CHANNELS 1 Zrotation
									JOINT L1DistPhalanx
									{
										OFFSET 0.035 0 0
										CHANNELS 1 Zrotation
										End Site
										{
											OFFSET 0.029 -0 -0
										}
									}
								}
							}
							JOINT L2ProxPhalanx
							{
								OFFSET 0.0821037 0.001578 0.0219996
								CHANNELS 2 Yrotation Zrotation
								JOINT L2MidPhalanx
								{
									OFFSET 0.04 0 0
									CHANNELS 1 Zrotation
									JOINT L2DistPhalanx
									{
										OFFSET 0.028 0 0
										CHANNELS 1 Zrotation
										End Site
										{
											OFFSET 0.02 -0 -0
										}
									}
								}
							}
							JOINT L3ProxPhalanx
							{
								OFFSET 0.083 0 0
								CHANNELS 2 Yrotation Zrotation
								JOINT L3MidPhalanx
								{
									OFFSET 0.053 0 0
									CHANNELS 1 Zrotation
									JOINT L3DistPhalanx
									{
										OFFSET 0.03 0 0
										CHANNELS 1 Zrotation
										End Site
										{
											OFFSET 0.023 -0 -0
										}
									}
								}
							}
							JOINT L4ProxPhalanx
							{
								OFFSET 0.077274 -0.000761 -0.0207055
								CHANNELS 2 Yrotation Zrotation
								JOINT L4MidPhalanx
								{
									OFFSET 0.05 0 0
									CHANNELS 1 Zrotation
									JOINT L4DistPhalanx
									{
										OFFSET 0.03 0 0
										CHANNELS 1 Zrotation
										End Site
										{
											OFFSET 0.023 -0 -0
										}
									}
								}
							}
							JOINT L5ProxPhalanx
							{
								OFFSET 0.0675499 -0.001644 -0.039
								CHANNELS 2 Yrotation Zrotation
								JOINT L5MidPhalanx
								{
									OFFSET 0.04 0 0
									CHANNELS 1 Zrotation
									JOINT L5DistPhalanx
									{
										OFFSET 0.021 0 0
										CHANNELS 1 Zrotation
										End Site
										{
											OFFSET 0.022 -0 -0
										}
									}
								}
							}
						}
					}
				}
			}
			JOINT Right_Collar
			{
				OFFSET -0.02282 0.250342 0.017193
				CHANNELS 2 Yrotation Zrotation
				JOINT Right_Shoulder
				{
					OFFSET -0.15421 0 0
					CHANNELS 3 Xrotation Yrotation Zrotation
					JOINT Right_Forearm
					{
						OFFSET -0.265212 0 0
						CHANNELS 2 Yrotation Xrotation
						JOINT Right_Hand
						{
							OFFSET -0.27571 3e-006 0
							CHANNELS 2 Zrotation Yrotation
							JOINT R1ProxPhalanx
							{
								OFFSET -0.014142 0.001733 0.014142
								CHANNELS 3 Yrotation Zrotation Xrotation
								JOINT R1MidPhalanx
								{
									OFFSET -0.04 0 0
									CHANNELS 1 Zrotation
									JOINT R1DistPhalanx
									{
										OFFSET -0.035 0 0
										CHANNELS 1 Zrotation
										End Site
										{
											OFFSET -0.029 -0 -0
										}
									}
								}
							}
							JOINT R2ProxPhalanx
							{
								OFFSET -0.0821037 0.001578 0.0219996
								CHANNELS 2 Yrotation Zrotation
								JOINT R2MidPhalanx
								{
									OFFSET -0.04 0 0
									CHANNELS 1 Zrotation
									JOINT R2DistPhalanx
									{
										OFFSET -0.028 0 0
										CHANNELS 1 Zrotation
										End Site
										{
											OFFSET -0.02 -0 -0
										}
									}
								}
							}
							JOINT R3ProxPhalanx
							{
								OFFSET -0.083 0 0
								CHANNELS 2 Yrotation Zrotation
								JOINT R3MidPhalanx
								{
									OFFSET -0.053 0 0
									CHANNELS 1 Zrotation
									JOINT R3DistPhalanx
									{
										OFFSET -0.03 0 0
										CHANNELS 1 Zrotation
										End Site
										{
											OFFSET -0.023 -0 -0
										}
									}
								}
							}
							JOINT R4ProxPhalanx
							{
								OFFSET -0.077274 -0.000761 -0.0207055
								CHANNELS 2 Yrotation Zrotation
								JOINT R4MidPhalanx
								{
									OFFSET -0.05 0 0
									CHANNELS 1 Zrotation
									JOINT R4DistPhalanx
									{
										OFFSET -0.03 0 0
										CHANNELS 1 Zrotation
										End Site
										{
											OFFSET -0.023 -0 -0
										}
									}
								}
							}
							JOINT R5ProxPhalanx
							{
								OFFSET -0.0675499 -0.001644 -0.039
								CHANNELS 2 Yrotation Zrotation
								JOINT R5MidPhalanx
								{
									OFFSET -0.04 0 0
									CHANNELS 1 Zrotation
									JOINT R5DistPhalanx
									{
										OFFSET -0.021 0 0
										CHANNELS 1 Zrotation
										End Site
										{
											OFFSET -0.022 -0 -0
										}
									}
								}
							}
						}
					}
				}
			}
		}
	}
	JOINT Left_Thigh
	{
		OFFSET 0.1118 -0.1612 -0.0442
		CHANNELS 3 Xrotation Zrotation Yrotation
		JOINT Left_Shin
		{
			OFFSET 0 -0.477856 0
			CHANNELS 1 Xrotation
			JOINT Left_Foot
			{
				OFFSET 0 -0.431952 0
				CHANNELS 2 Xrotation Zrotation
				JOINT Left_Toe
				{
					OFFSET 0 -0.0442 0.119
					CHANNELS 1 Xrotation
					End Site
					{
						OFFSET -0 -0 0.07
					}
				}
			}
		}
	}
	JOINT Right_Thigh
	{
		OFFSET -0.1118 -0.1612 -0.0442
		CHANNELS 3 Xrotation Zrotation Yrotation
		JOINT Right_Shin
		{
			OFFSET 0 -0.477856 0
			CHANNELS 1 Xrotation
			JOINT Right_Foot
			{
				OFFSET 0 -0.431952 0
				CHANNELS 2 Xrotation Zrotation
				JOINT Right_Toe
				{
					OFFSET 0 -0.0442 0.119
					CHANNELS 1 Xrotation
					End Site
					{
						OFFSET -0 -0 0.07
					}
				}
			}
		}
	}
}
MOTION
Frames: 16
Frame Time: 0.00999063
-0.100956 -0.0602514 0.0578219 -2.92868e-013 1.05716e-007 -5.10859e-006 0 0 0 0 0 0 0 0 0 -0.713861 0.290263 0 8.27208 -31.015 10.4644 -9.86857 -24.2564 -125.767 -7.17761 3.72125 -16.9043 -40.5316 -43.5896 103.283 -7.10789 -4.81548 2.69559 -7.40342 -2.98992 -6.72733 5.89092 0.508958 -5.4973 -5.3917 11.1257 1.19015 -12.1062 -9.35422 19.4153 3.33565 -41.2194 -1.46018 0 3.88717 30.6237 11.2182 67.4665 82.6896 0 0 0 37.9386 28.008 73.698 26.2405 28.4472 13.118 18.2167 29.0248 19.6359 0 22.4358 32.6146 28.1246 -8.63175 30.7051 32.2053 23.7634 -7.83088 26.7354 35.1526 30.0193 1.17408 -0.682953 -0.0139966 0.0240216 -1.19802 0.683101 0 1.18549 -0.68295 -0.0141325 2.83165e-006 -1.18541 0.683101 0 
5.51093e+007 -865559 7.25773e+007 0.0272219 0.215531 -14.3967 0 -0 0 0 -0 0 0 -0 0 -160.919 7.88226 43.0949 -26.2712 128.914 28.8688 11.8142 125.056 61.3973 3.14011 -28.148 -10.2792 -39.8713 49.5333 13.1021 -38.383 -104.124 3.05883 -5.1518 62.1214 82.4561 -19.6021 -158.85 -32.1023 147.633 -14.9189 -87.644 -83.5611 -56.58 54.8987 115.963 15.9824 -40.0849 -28.0937 -149.003 8.38557 12.8722 32.7044 127.757 -5.524 28.148 10.2792 39.8713 -49.5333 13.1021 38.383 104.124 -3.05883 5.1518 -62.1214 -82.4561 19.6021 158.85 32.1023 -147.633 14.9189 87.644 83.5611 56.58 -54.8987 -115.963 -15.9824 40.0849 88.2682 -37.3113 -36.7832 -16.3695 -100.79 70.436 0 -149.589 21.5803 -68.4941 0 40.1485 -30.2176 0 
-0.101369 -0.0601558 0.0527368 6.10724e-013 7.71534e-008 -5.0995e-006 0 -0 0 0 -0 0 0 -0 0 -0.711891 0.290678 -3.38965e-006 8.30895 -33.4319 8.61913 -12.9964 -31.7643 -111.362 -5.08103 -10.7371 -3.95043 -40.5717 -43.5601 103.227 -7.16014 -4.84393 2.68876 -7.44574 -3.05926 -6.74283 5.88018 0.448117 -5.56194 -5.41533 11.1082 1.12812 -12.1585 -9.37042 19.3906 3.28467 -41.2059 -1.49492 -8.30895 33.4319 8.61913 12.9964 31.7643 111.362 -5.08103 10.7371 3.95043 40.5717 43.5601 103.227 7.16014 4.84393 -2.68876 7.44574 3.05926 6.74283 -5.88018 -0.448117 5.56194 5.41533 -11.1082 -1.12812 12.1585 9.37042 -19.3906 -3.28467 41.2059 1.49492 0.853787 -0.656884 -0.00979826 0.0239766 -0.877708 0.656962 0 0.865172 -0.656882 -0.0099289 1.70435e-006 -0.865116 0.656962 0 
-0.10135 -0.0601561 0.0527625 6.11877e-013 7.72982e-008 -5.10908e-006 0 -0 0 0 -0 0 0 -0 0 -0.713227 0.291224 3.88256e-019 8.3241 -33.4945 8.64663 -13.0107 -31.6542 -111.571 -5.08735 -10.7573 -3.95782 -40.5316 -43.5896 103.283 -7.10789 -4.81548 2.69559 -7.40342 -2.98992 -6.72733 5.89092 0.508958 -5.4973 -5.3917 11.1257 1.19015 -12.1062 -9.35422 19.4153 3.33565 -41.2194 -1.46018 -8.3241 33.4945 8.64663 13.0107 31.6542 111.571 -5.08735 10.7573 3.95782 40.5316 43.5896 103.283 7.10789 4.81548 -2.69559 7.40342 2.98992 6.72733 -5.89092 -0.508958 5.4973 5.3917 -11.1257 -1.19015 12.1062 9.35422 -19.4153 -3.33565 41.2194 1.46018 0.85539 -0.658117 -0.00982586 0.0240216 -0.879355 0.658195 0 0.866796 -0.658115 -0.00995686 3.90629e-006 -0.86674 0.658195 0 
-0.10135 -0.0601561 0.0527625 -6.69241e-013 7.72983e-008 -5.10908e-006 0 -0 0 0 -0 0 0 -0 0 -0.713227 0.291224 -3.88256e-019 8.3241 -33.4945 8.64663 -13.0107 -31.6542 -111.571 -5.08735 -10.7573 -3.95782 -40.5316 -43.5896 103.283 -7.10789 -4.81548 2.69559 -7.40342 -2.98992 -6.72733 5.89092 0.508958 -5.4973 -5.3917 11.1257 1.19015 -12.1062 -9.35422 19.4153 3.33565 -41.2194 -1.46018 -8.3241 33.4945 8.64663 13.0107 31.6542 111.571 -5.08735 10.7573 3.95782 40.5316 43.5896 103.283 7.10789 4.81548 -2.69559 7.40342 2.98992 6.72733 -5.89092 -0.508958 5.4973 5.3917 -11.1257 -1.19015 12.1062 9.35422 -19.4153 -3.33565 41.2194 1.46018 0.85539 -0.658117 -0.00982586 0.0240216 -0.879355 0.658195 0 0.866794 -0.658115 -0.00995685 1.46604e-008 -0.866739 0.658195 0 
-0.10135 -0.0601561 0.0527625 -4.52516e-013 7.72982e-008 -5.10908e-006 0 -0 0 0 -0 0 0 -0 0 -0.713227 0.291224 3.88256e-019 8.3241 -33.4945 8.64663 -13.0107 -31.6542 -111.571 -5.08735 -10.7573 -3.95782 -40.5316 -43.5896 103.283 -7.10789 -4.81548 2.69559 -7.40342 -2.98992 -6.72733 5.89092 0.508958 -5.4973 -5.3917 11.1257 1.19015 -12.1062 -9.35422 19.4153 3.33565 -41.2194 -1.46018 -8.3241 33.4945 8.64663 13.0107 31.6542 111.571 -5.08735 10.7573 3.95782 40.5316 43.5896 103.283 7.10789 4.81548 -2.69559 7.40342 2.98992 6.72733 -5.89092 -0.508958 5.4973 5.3917 -11.1257 -1.19015 12.1062 9.35422 -19.4153 -3.33565 41.2194 1.46018 0.85539 -0.658117 -0.00982586 0.0240216 -0.879355 0.658195 0 0.866796 -0.658115 -0.00995687 1.69955e-006 -0.866739 0.658195 0 
-0.10135 -0.0601561 0.0527625 -1.76603e-013 7.72982e-008 -5.10908e-006 0 -0 0 0 -0 0 0 -0 0 -0.713227 0.291224 3.88256e-019 8.3241 -33.4945 8.64663 -13.0107 -31.6542 -111.571 -5.08735 -10.7573 -3.95782 -40.5316 -43.5896 103.283 -7.10789 -4.81548 2.69559 -7.40342 -2.98992 -6.72733 5.89092 0.508958 -5.4973 -5.3917 11.1257 1.19015 -12.1062 -9.35422 19.4153 3.33565 -41.2194 -1.46018 -8.3241 33.4945 8.64663 13.0107 31.6542 111.571 -5.08735 10.7573 3.95782 40.5316 43.5896 103.283 7.10789 4.81548 -2.69559 7.40342 2.98992 6.72733 -5.89092 -0.508958 5.4973 5.3917 -11.1257 -1.19015 12.1062 9.35422 -19.4153 -3.33565 41.2194 1.46018 0.85539 -0.658117 -0.00982586 0.0240216 -0.879355 0.658195 0 0.866796 -0.658115 -0.00995686 9.59746e-009 -0.86674 0.658195 0 
-0.10135 -0.0601561 0.0527625 5.5577e-013 7.72983e-008 -5.10908e-006 0 -0 0 0 -0 0 0 -0 0 -0.713227 0.291224 -0 8.3241 -33.4945 8.64663 -13.0107 -31.6542 -111.571 -5.08735 -10.7573 -3.95782 -40.5316 -43.5896 103.283 -7.10789 -4.81548 2.69559 -7.40342 -2.98992 -6.72733 5.89092 0.508958 -5.4973 -5.3917 11.1257 1.19015 -12.1062 -9.35422 19.4153 3.33565 -41.2194 -1.46018 -8.3241 33.4945 8.64663 13.0107 31.6542 111.571 -5.08735 10.7573 3.95782 40.5316 43.5896 103.283 7.10789 4.81548 -2.69559 7.40342 2.98992 6.72733 -5.89092 -0.508958 5.4973 5.3917 -11.1257 -1.19015 12.1062 9.35422 -19.4153 -3.33565 41.2194 1.46018 0.85539 -0.658117 -0.00982586 0.0240216 -0.879355 0.658195 0 0.866796 -0.658115 -0.00995687 0 -0.866739 0.658195 0 
-0.10135 -0.0601561 0.0527625 -6.76099e-013 7.72982e-008 -5.10908e-006 0 -0 0 0 -0 0 0 -0 0 -0.713227 0.291224 7.76513e-019 8.3241 -33.4945 8.64663 -13.0107 -31.6542 -111.571 -5.08735 -10.7573 -3.95782 -40.5316 -43.5896 103.283 -7.10789 -4.81548 2.69559 -7.40342 -2.98992 -6.72733 5.89092 0.508958 -5.4973 -5.3917 11.1257 1.19015 -12.1062 -9.35422 19.4153 3.33565 -41.2194 -1.46018 -8.3241 33.4945 8.64663 13.0107 31.6542 111.571 -5.08735 10.7573 3.95782 40.5316 43.5896 103.283 7.10789 4.81548 -2.69559 7.40342 2.98992 6.72733 -5.89092 -0.508958 5.4973 5.3917 -11.1257 -1.19015 12.1062 9.35422 -19.4153 -3.33565 41.2194 1.46018 0.85539 -0.658117 -0.00982586 0.0240216 -0.879355 0.658195 0 0.866796 -0.658115 -0.00995686 1.69475e-006 -0.866739 0.658195 0 
-0.10135 -0.0601561 0.0527625 6.11877e-013 7.72982e-008 -5.10908e-006 0 -0 0 0 -0 0 0 -0 0 -0.713227 0.291224 3.88256e-019 8.3241 -33.4945 8.64663 -13.0107 -31.6542 -111.571 -5.08735 -10.7573 -3.95782 -40.5316 -43.5896 103.283 -7.10789 -4.81548 2.69559 -7.40342 -2.98992 -6.72733 5.89092 0.508958 -5.4973 -5.3917 11.1257 1.19015 -12.1062 -9.35422 19.4153 3.33565 -41.2194 -1.46018 -8.3241 33.4945 8.64663 13.0107 31.6542 111.571 -5.08735 10.7573 3.95782 40.5316 43.5896 103.283 7.10789 4.81548 -2.69559 7.40342 2.98992 6.72733 -5.89092 -0.508958 5.4973 5.3917 -11.1257 -1.19015 12.1062 9.35422 -19.4153 -3.33565 41.2194 1.46018 0.85539 -0.658117 -0.00982586 0.0240216 -0.879355 0.658195 0 0.866796 -0.658115 -0.00995686 3.89389e-006 -0.86674 0.658195 0 
-0.10135 -0.0601561 0.0527625 -6.69241e-013 7.72983e-008 -5.10908e-006 0 -0 0 0 -0 0 0 -0 0 -0.713227 0.291224 -3.88256e-019 8.3241 -33.4945 8.64663 -13.0107 -31.6542 -111.571 -5.08735 -10.7573 -3.95782 -40.5316 -43.5896 103.283 -7.10789 -4.81548 2.69559 -7.40342 -2.98992 -6.72733 5.89092 0.508958 -5.4973 -5.3917 11.1257 1.19015 -12.1062 -9.35422 19.4153 3.33565 -41.2194 -1.46018 -8.3241 33.4945 8.64663 13.0107 31.6542 111.571 -5.08735 10.7573 3.95782 40.5316 43.5896 103.283 7.10789 4.81548 -2.69559 7.40342 2.98992 6.72733 -5.89092 -0.508958 5.4973 5.3917 -11.1257 -1.19015 12.1062 9.35422 -19.4153 -3.33565 41.2194 1.46018 0.85539 -0.658117 -0.00982586 0.0240216 -0.879355 0.658195 0 0.866794 -0.658115 -0.00995685 3.66509e-008 -0.866739 0.658195 0 
-0.10135 -0.0601561 0.0527625 -4.52516e-013 7.72982e-008 -5.10908e-006 0 -0 0 0 -0 0 0 -0 0 -0.713227 0.291224 3.88256e-019 8.3241 -33.4945 8.64663 -13.0107 -31.6542 -111.571 -5.08735 -10.7573 -3.95782 -40.5316 -43.5896 103.283 -7.10789 -4.81548 2.69559 -7.40342 -2.98992 -6.72733 5.89092 0.508958 -5.4973 -5.3917 11.1257 1.19015 -12.1062 -9.35422 19.4153 3.33565 -41.2194 -1.46018 -8.3241 33.4945 8.64663 13.0107 31.6542 111.571 -5.08735 10.7573 3.95782 40.5316 43.5896 103.283 7.10789 4.81548 -2.69559 7.40342 2.98992 6.72733 -5.89092 -0.508958 5.4973 5.3917 -11.1257 -1.19015 12.1062 9.35422 -19.4153 -3.33565 41.2194 1.46018 0.85539 -0.658117 -0.00982586 0.0240216 -0.879355 0.658195 0 0.866796 -0.658115 -0.00995687 1.68995e-006 -0.866739 0.658195 0 
-0.10135 -0.0601561 0.0527625 -1.76603e-013 7.72982e-008 -5.10908e-006 0 -0 0 0 -0 0 0 -0 0 -0.713227 0.291224 3.88256e-019 8.3241 -33.4945 8.64663 -13.0107 -31.6542 -111.571 -5.08735 -10.7573 -3.95782 -40.5316 -43.5896 103.283 -7.10789 -4.81548 2.69559 -7.40342 -2.98992 -6.72733 5.89092 0.508958 -5.4973 -5.3917 11.1257 1.19015 -12.1062 -9.35422 19.4153 3.33565 -41.2194 -1.46018 -8.3241 33.4945 8.64663 13.0107 31.6542 111.571 -5.08735 10.7573 3.95782 40.5316 43.5896 103.283 7.10789 4.81548 -2.69559 7.40342 2.98992 6.72733 -5.89092 -0.508958 5.4973 5.3917 -11.1257 -1.19015 12.1062 9.35422 -19.4153 -3.33565 41.2194 1.46018 0.85539 -0.658117 -0.00982586 0.0240216 -0.879355 0.658195 0 0.866796 -0.658115 -0.00995686 1.91949e-008 -0.86674 0.658195 0 
-0.10135 -0.0601561 0.0527625 5.5577e-013 7.72983e-008 -5.10908e-006 0 -0 0 0 -0 0 0 -0 0 -0.713227 0.291224 -0 8.3241 -33.4945 8.64663 -13.0107 -31.6542 -111.571 -5.08735 -10.7573 -3.95782 -40.5316 -43.5896 103.283 -7.10789 -4.81548 2.69559 -7.40342 -2.98992 -6.72733 5.89092 0.508958 -5.4973 -5.3917 11.1257 1.19015 -12.1062 -9.35422 19.4153 3.33565 -41.2194 -1.46018 -8.3241 33.4945 8.64663 13.0107 31.6542 111.571 -5.08735 10.7573 3.95782 40.5316 43.5896 103.283 7.10789 4.81548 -2.69559 7.40342 2.98992 6.72733 -5.89092 -0.508958 5.4973 5.3917 -11.1257 -1.19015 12.1062 9.35422 -19.4153 -3.33565 41.2194 1.46018 0.85539 -0.658117 -0.00982586 0.0240216 -0.879355 0.658195 0 0.866796 -0.658115 -0.00995687 0 -0.866739 0.658195 0 
-0.10135 -0.0601561 0.0527625 -6.76099e-013 7.72982e-008 -5.10908e-006 0 -0 0 0 -0 0 0 -0 0 -0.713227 0.291224 7.76513e-019 8.3241 -33.4945 8.64663 -13.0107 -31.6542 -111.571 -5.08735 -10.7573 -3.95782 -40.5316 -43.5896 103.283 -7.10789 -4.81548 2.69559 -7.40342 -2.98992 -6.72733 5.89092 0.508958 -5.4973 -5.3917 11.1257 1.19015 -12.1062 -9.35422 19.4153 3.33565 -41.2194 -1.46018 -8.3241 33.4945 8.64663 13.0107 31.6542 111.571 -5.08735 10.7573 3.95782 40.5316 43.5896 103.283 7.10789 4.81548 -2.69559 7.40342 2.98992 6.72733 -5.89092 -0.508958 5.4973 5.3917 -11.1257 -1.19015 12.1062 9.35422 -19.4153 -3.33565 41.2194 1.46018 0.85539 -0.658117 -0.00982586 0.0240216 -0.879355 0.658195 0 0.866796 -0.658115 -0.00995686 1.68515e-006 -0.866739 0.658195 0 
-0.10135 -0.0601561 0.0527625 6.11877e-013 7.72982e-008 -5.10908e-006 0 -0 0 0 -0 0 0 -0 0 -0.713227 0.291224 3.88256e-019 8.3241 -33.4945 8.64663 -13.0107 -31.6542 -111.571 -5.08735 -10.7573 -3.95782 -40.5316 -43.5896 103.283 -7.10789 -4.81548 2.69559 -7.40342 -2.98992 -6.72733 5.89092 0.508958 -5.4973 -5.3917 11.1257 1.19015 -12.1062 -9.35422 19.4153 3.33565 -41.2194 -1.46018 -8.3241 33.4945 8.64663 13.0107 31.6542 111.571 -5.08735 10.7573 3.95782 40.5316 43.5896 103.283 7.10789 4.81548 -2.69559 7.40342 2.98992 6.72733 -5.89092 -0.508958 5.4973 5.3917 -11.1257 -1.19015 12.1062 9.35422 -19.4153 -3.33565 41.2194 1.46018 0.85539 -0.658117 -0.00982586 0.0240216 -0.879355 0.658195 0 0.866796 -0.658115 -0.00995686 3.8815e-006 -0.86674 0.658195 0 
